
<svg xmlns="http://www.w3.org/2000/svg" version="1.1" xmlns:xlink="http://www.w3.org/1999/xlink" preserveAspectRatio="none" x="0px" y="0px" width="215px" height="215px" viewBox="0 0 215 215">
<defs>
<g id="icons_0_Layer0_0_FILL">
<path fill="#8CABCA" stroke="none" d="
M -418.6 -14.2
Q -418.65 -14.2 -418.7 -14.2
L -462.65 -14.2
Q -484.35 -14.95 -489.5 2.55 -489.5 2.6 -489.55 2.75 -510.55 58.2 -519.75 85.3 -519.1 89 -517.15 91.5
L -517.1 91.5
Q -513.3 96.15 -504.85 96.55
L -504.65 96.55
Q -504.05 96.55 -503.45 96.55
L -382.8 96.55
Q -382.75 96.55 -382.7 96.55
L -358.55 96.65
Q -341.55 96.65 -337.55 86
L -307.45 -0.35
Q -305.05 -8.3 -316.7 -12.45
L -316.65 -12.4
Q -317.35 -12.65 -318.05 -12.9
L -318.35 -12.95 -318.4 -13 -318.55 -13.05
Q -320.6 -13.65 -322.8 -14.2
L -344.5 -14.2
Q -344.8 -14.15 -345.05 -14.2
L -381.4 -14.2
Q -381.7 -14.15 -381.95 -14.2
L -418.6 -14.2 Z"/>

<path fill="#576A7D" stroke="none" d="
M -427.75 -24.85
Q -428.65 -25.4 -429.65 -25.1 -430.65 -24.85 -431.15 -23.95 -431.7 -23.05 -431.4 -22.05 -431.15 -21.05 -430.25 -20.5
L -427.95 -19.2 -417.9 -19.2 -427.75 -24.85
M -418.5 -40.85
Q -419.4 -41.4 -420.4 -41.1 -421.4 -40.85 -421.9 -39.95 -422.45 -39.05 -422.15 -38.05 -421.9 -37.05 -421 -36.5
L -391 -19.2 -380.95 -19.2 -418.5 -40.85
M -403.7 -70
Q -403.45 -69 -402.55 -68.45
L -333.3 -28.45
Q -332.4 -27.95 -331.4 -28.2 -330.4 -28.5 -329.9 -29.4 -329.35 -30.3 -329.6 -31.3 -329.9 -32.3 -330.8 -32.8
L -400.05 -72.8
Q -400.95 -73.35 -401.95 -73.05 -402.95 -72.8 -403.45 -71.9 -404 -71 -403.7 -70
M -409.3 -56.85
Q -410.2 -57.4 -411.2 -57.1 -412.2 -56.85 -412.7 -55.95 -413.25 -55.05 -412.95 -54.05 -412.7 -53.05 -411.8 -52.5
L -354.1 -19.2 -344.05 -19.2 -409.3 -56.85
M -503.45 -66.3
Q -520.15 -66.3 -520.2 -50.15
L -520.2 71.25
Q -510.95 45.05 -494.25 1 -488.3 -20.05 -462.6 -19.2 -462.55 -19.2 -462.5 -19.2
L -457 -19.2 -446 -38.25 -464.4 -59.75
Q -470.15 -65.5 -475.6 -66.3
L -503.45 -66.3 Z"/>

<path fill="#FFFFFF" stroke="none" d="
M -411.2 -57.1
Q -410.2 -57.4 -409.3 -56.85
L -344.05 -19.2 -322.6 -19.2
Q -322.35 -19.2 -322.05 -19.1 -320.4 -18.75 -318.9 -18.35
L -312.25 -29.9
Q -304.35 -43.8 -319.45 -52.45
L -388.7 -92.45
Q -396.35 -96.9 -402.2 -95.7 -407.9 -94.3 -411.85 -87.4
L -440.1 -38.45
Q -440.1 -38.15 -440.1 -37.8 -440.25 -36.8 -441.1 -36.15 -441.35 -35.95 -441.6 -35.85
L -451.25 -19.2 -427.95 -19.2 -430.25 -20.5
Q -431.15 -21.05 -431.4 -22.05 -431.7 -23.05 -431.15 -23.95 -430.65 -24.85 -429.65 -25.1 -428.65 -25.4 -427.75 -24.85
L -417.9 -19.2 -391 -19.2 -421 -36.5
Q -421.9 -37.05 -422.15 -38.05 -422.45 -39.05 -421.9 -39.95 -421.4 -40.85 -420.4 -41.1 -419.4 -41.4 -418.5 -40.85
L -380.95 -19.2 -354.1 -19.2 -411.8 -52.5
Q -412.7 -53.05 -412.95 -54.05 -413.25 -55.05 -412.7 -55.95 -412.2 -56.85 -411.2 -57.1
M -402.55 -68.45
Q -403.45 -69 -403.7 -70 -404 -71 -403.45 -71.9 -402.95 -72.8 -401.95 -73.05 -400.95 -73.35 -400.05 -72.8
L -330.8 -32.8
Q -329.9 -32.3 -329.6 -31.3 -329.35 -30.3 -329.9 -29.4 -330.4 -28.5 -331.4 -28.2 -332.4 -27.95 -333.3 -28.45
L -402.55 -68.45 Z"/>
</g>
</defs>

<g transform="matrix( 1, 0, 0, 1, 107.5,107.55) ">
<g transform="matrix( 0.7987823486328125, 0, 0, 0.7987823486328125, 330.4,-0.3) ">
<use xlink:href="#icons_0_Layer0_0_FILL"/>
</g>
</g>
</svg>
