
<svg xmlns="http://www.w3.org/2000/svg" version="1.1" xmlns:xlink="http://www.w3.org/1999/xlink" preserveAspectRatio="none" x="0px" y="0px" width="215px" height="215px" viewBox="0 0 215 215">
<defs>
<g id="icons_8_Layer0_0_MEMBER_0_MEMBER_0_FILL">
<path fill="#576A7D" stroke="none" d="
M -340 -20
Q -350 -20 -350 -10
L -350 70
Q -350 80 -340 80
L -210 80
Q -200 80 -200 70
L -200 -10
Q -200 -20 -210 -20
L -340 -20 Z"/>
</g>

<g id="icons_8_Layer0_0_MEMBER_0_MEMBER_1_FILL">
<path fill="#576A7D" stroke="none" d="
M -48.55 -53.25
L -70.8 -53.25
Q -84.15 -53.25 -84.2 -40.35
L -84.2 56.6
Q -76.8 35.7 -63.45 0.5 -58.7 -16.3 -38.15 -15.65
L -9.7 -15.65 -24.9 -30.85 -39.6 -48.05
Q -44.2 -52.6 -48.55 -53.25 Z"/>
</g>

<g id="icons_8_Layer0_0_MEMBER_1_FILL">
<path fill="#8CABCA" stroke="none" d="
M 98.15 -32.2
Q 100.0076171875 -46.896484375 87.3 -46.9
L -77.85 -46.9
Q -90.5578125 -46.896484375 -88.7 -32.2
L -76.1 67.5
Q -74.744921875 78.0548828125 -64.15 78.05
L 73.6 78.05
Q 84.194921875 78.0548828125 85.5 67.5
L 98.15 -32.2 Z"/>
</g>

<path id="icons_8_Layer0_0_MEMBER_0_MEMBER_0_1_STROKES" stroke="#576A7D" stroke-width="1" stroke-linejoin="round" stroke-linecap="round" fill="none" d="
M -64.16428222656248 -50.6932861328125
L 73.58382568359377 -50.6932861328125
Q 84.17983398437502 -50.6932861328125 84.17983398437502 -38.19664306640625
L 84.17983398437502 61.77650146484375
Q 84.17983398437502 74.27314453125 73.58382568359377 74.27314453125
L -64.16428222656248 74.27314453125
Q -74.76029052734373 74.27314453125 -74.76029052734373 61.77650146484375
L -74.76029052734373 -38.19664306640625
Q -74.76029052734373 -50.6932861328125 -64.16428222656248 -50.6932861328125 Z"/>
</defs>

<g transform="matrix( 1, 0, 0, 1, 104.35,104.2) ">
<g transform="matrix( 1.059600830078125, 0, 0, 1.249664306640625, 296.1,-25.7) ">
<use xlink:href="#icons_8_Layer0_0_MEMBER_0_MEMBER_0_FILL"/>

<use xlink:href="#icons_8_Layer0_0_MEMBER_0_MEMBER_0_1_STROKES" transform="matrix( 0.9437408447265625, 0, 0, 0.800201416015625, -279.4,20.55) "/>
</g>

<g transform="matrix( 1, 0, 0, 1, 8.55,-15.2) ">
<use xlink:href="#icons_8_Layer0_0_MEMBER_0_MEMBER_1_FILL"/>
</g>

<g transform="matrix( 1, 0, 0, 0.8650054931640625, 0,10.55) ">
<use xlink:href="#icons_8_Layer0_0_MEMBER_1_FILL"/>
</g>
</g>
</svg>
