
<svg xmlns="http://www.w3.org/2000/svg" version="1.1" xmlns:xlink="http://www.w3.org/1999/xlink" preserveAspectRatio="none" x="0px" y="0px" width="215px" height="215px" viewBox="0 0 215 215">
<defs>
<g id="Layer0_0_FILL">
<path fill="#8CABCA" stroke="none" d="
M -2.65 13
Q -2.65 3.25 -12.4 3.25
L -66.45 3.25
Q -76.2 3.25 -76.2 13
L -76.2 67
Q -76.2 76.75 -66.45 76.75
L -12.4 76.75
Q -2.65 76.75 -2.65 67
L -2.65 13
M 22.4 -83.25
Q 12.65 -83.25 12.65 -73.5
L 12.65 -19.5
Q 12.65 -9.75 22.4 -9.75
L 76.45 -9.75
Q 86.2 -9.75 86.2 -19.5
L 86.2 -73.5
Q 86.2 -83.25 76.45 -83.25
L 22.4 -83.25 Z"/>

<path fill="#7C98B3" stroke="none" d="
M -2.65 -70.3
Q -2.65 -80.05 -12.4 -80.05
L -66.45 -80.05
Q -76.2 -80.05 -76.2 -70.3
L -76.2 -16.3
Q -76.2 -6.55 -66.45 -6.55
L -12.4 -6.55
Q -2.65 -6.55 -2.65 -16.3
L -2.65 -70.3
M 83 67
L 83 13
Q 83 3.25 73.25 3.25
L 19.2 3.25
Q 9.45 3.25 9.45 13
L 9.45 67
Q 9.45 76.75 19.2 76.75
L 73.25 76.75
Q 83 76.75 83 67 Z"/>
</g>
</defs>

<g transform="matrix( 1, 0, 0, 1, 107.5,107.55) ">
<g transform="matrix( 0.92364501953125, 0, 0, 0.92364501953125, 0.4,-0.25) ">
<use xlink:href="#Layer0_0_FILL"/>
</g>
</g>
</svg>
