
<svg xmlns="http://www.w3.org/2000/svg" version="1.1" xmlns:xlink="http://www.w3.org/1999/xlink" preserveAspectRatio="none" x="0px" y="0px" width="215px" height="215px" viewBox="0 0 215 215">
<defs>
<g id="Layer0_0_MEMBER_0_FILL">
<path fill="#F1BF26" stroke="none" d="
M -603.35 -54.2
Q -604.25 -55.1 -605.5 -55.1
L -707.5 -55.1
Q -718.5 -55.1 -718.5 -44.1
L -718.5 181.55
Q -718.5 196.95 -707.5 196.5
L -553.5 196.5
Q -542.5 196.95 -542.5 181.55
L -542.5 106.3
Q -542.5 105.05 -543.35 104.2 -543.55 104 -543.8 103.85 -543.55 103.65 -543.35 103.5 -542.5 102.6 -542.5 101.35
L -542.5 15.6
Q -542.5 15.45 -542.5 15.3
L -542.5 7.9
Q -542.5 6.65 -543.35 5.8
L -603.35 -54.2
M -613.1 -49.1
Q -608.65 -48.95 -608.5 -44.5
L -608.5 -0.1
Q -608.5 10.9 -597.5 10.9
L -553 10.9
Q -548.7 11.1 -548.5 15.4 -548.5 15.45 -548.5 15.5
L -548.5 101.35
Q -548.5 102.6 -547.6 103.5 -547.45 103.65 -547.2 103.85 -547.45 104 -547.6 104.2 -548.5 105.05 -548.5 106.3
L -548.5 181.55
Q -548.5 190.05 -553.5 190.5
L -707.5 190.5
Q -712.5 190.05 -712.5 181.55
L -712.5 -44.1
Q -712.5 -49.1 -707.5 -49.1
L -613.1 -49.1
M -602.5 -44.7
Q -602.5 -44.8 -602.5 -44.85
L -552.75 4.9
Q -552.8 4.9 -552.9 4.9 -552.95 4.9 -553 4.9
L -597.5 4.9
Q -602.5 4.9 -602.5 -0.1
L -602.5 -44.6
Q -602.5 -44.65 -602.5 -44.7 Z"/>

<path fill="#FFFFFF" stroke="none" d="
M -602.5 -44.85
Q -602.5 -44.8 -602.5 -44.7 -602.5 -44.65 -602.5 -44.6
L -602.5 -0.1
Q -602.5 4.9 -597.5 4.9
L -553 4.9
Q -552.95 4.9 -552.9 4.9 -552.8 4.9 -552.75 4.9
L -602.5 -44.85 Z"/>

<path fill="#ECEDEE" stroke="none" d="
M -608.5 -44.5
Q -608.65 -48.95 -613.1 -49.1
L -707.5 -49.1
Q -712.5 -49.1 -712.5 -44.1
L -712.5 181.55
Q -712.5 190.05 -707.5 190.5
L -553.5 190.5
Q -548.5 190.05 -548.5 181.55
L -548.5 106.3
Q -548.5 105.05 -547.6 104.2 -547.45 104 -547.2 103.85 -547.45 103.65 -547.6 103.5 -548.5 102.6 -548.5 101.35
L -548.5 15.5
Q -548.5 15.45 -548.5 15.4 -548.7 11.1 -553 10.9
L -597.5 10.9
Q -608.5 10.9 -608.5 -0.1
L -608.5 -44.5 Z"/>
</g>

<g id="Layer0_0_MEMBER_0_MEMBER_0_FILL">
<path fill="#E5A228" stroke="none" d="
M -580 308
Q -580 300 -588 300
L -732 300
Q -740 300 -740 308
L -740 372
Q -740 380 -732 380
L -588 380
Q -580 380 -580 372
L -580 308 Z"/>
</g>

<path id="Layer0_0_MEMBER_0_MEMBER_0_1_STROKES" stroke="#F1BF26" stroke-width="6" stroke-linejoin="miter" stroke-linecap="round" stroke-miterlimit="3" fill="none" d="
M -66.39005126953123 44.723791503906256
L -0.8346313476562273 44.723791503906256
Q 2.8073364257812727 44.723791503906256 2.8073364257812727 48.365759277343756
L 2.8073364257812727 77.50150146484376
Q 2.8073364257812727 81.14346923828126 -0.8346313476562273 81.14346923828126
L -66.39005126953123 81.14346923828126
Q -70.03201904296873 81.14346923828126 -70.03201904296873 77.50150146484376
L -70.03201904296873 48.365759277343756
Q -70.03201904296873 44.723791503906256 -66.39005126953123 44.723791503906256 Z"/>
</defs>

<g transform="matrix( 1, 0, 0, 1, 107.5,107.45) ">
<g transform="matrix( 0.7284088134765625, 0, 0, 0.7284088134765625, 465.15,-51.45) ">
<use xlink:href="#Layer0_0_MEMBER_0_FILL"/>
</g>

<g transform="matrix( 0.4552459716796875, 0, 0, 0.4552459716796875, 266.85,-91.85) ">
<use xlink:href="#Layer0_0_MEMBER_0_MEMBER_0_FILL"/>

<use xlink:href="#Layer0_0_MEMBER_0_MEMBER_0_1_STROKES" transform="matrix( 2.1966094970703125, 0, 0, 2.1966094970703125, -586.15,201.75) "/>
</g>

<g transform="matrix( 0.4552459716796875, 0, 0, 0.4552459716796875, -47.8,47.05) ">
<clipPath id="Mask_Mask_1">
<rect x="-2" y="-2" width="63.95" height="73.6" fill="#FFFFFF" stroke="none"/>
</clipPath>

<text clip-path="url(#Mask_Mask_1)" writing-mode="lr"><tspan x="0" y="55.1" baseline-shift="0%" font-family="Roboto Condensed" font-weight="bold" font-size="58" fill="#FFFFFF" xml:space="preserve">JS</tspan></text>
</g>

<g transform="matrix( 0.9759063720703125, 0, 0, 0.9759063720703125, -33.65,-42.3) ">
<clipPath id="Mask_Mask_2">
<rect x="-2" y="-2" width="80.3" height="73.6" fill="#FFFFFF" stroke="none"/>
</clipPath>

<text clip-path="url(#Mask_Mask_2)" writing-mode="lr"><tspan x="0" y="55.1" baseline-shift="0%" font-family="Roboto Condensed" font-weight="bold" font-size="58" fill="#E5A228" xml:space="preserve">{ ; }</tspan></text>
</g>
</g>
</svg>
