
<svg xmlns="http://www.w3.org/2000/svg" version="1.1" xmlns:xlink="http://www.w3.org/1999/xlink" preserveAspectRatio="none" x="0px" y="0px" width="215px" height="215px" viewBox="0 0 215 215">
<defs>
<g id="Layer0_0_FILL">
<path fill="#003366" stroke="none" d="
M 61.6 -58.55
Q 60.85 -59.35 60.1 -60.1 35.2 -85 0 -85 -35.2 -85 -60.1 -60.1 -80.137109375 -40.062890625 -84.05 -13.35 -84.38359375 -11.07421875 -84.6 -8.75 -85 -4.4611328125 -85 0 -85 35.2 -60.1 60.1 -59.35 60.85 -58.55 61.6 -49.0705078125 70.691015625 -38.15 76.25 -20.8826171875 85 0 85 20.8662109375 85 38.1 76.25 49.9603515625 70.2396484375 60.1 60.1 83.4654296875 36.7345703125 84.9 4.3 85 2.1693359375 85 0 85 -6.8720703125 84.05 -13.35 80.2912109375 -39.06015625 61.6 -58.55 Z"/>
</g>
</defs>

<g transform="matrix( 1, 0, 0, 1, 104.35,104.2) ">
<g transform="matrix( 1, 0, 0, 1, 0,0) ">
<use xlink:href="#Layer0_0_FILL"/>
</g>

<g transform="matrix( 2.039398193359375, 0, 0, 2.039398193359375, -15.6,-70.95) ">
<clipPath id="Mask_Mask_1">
<rect x="-2" y="-2" width="19.3" height="73.6" fill="#FFFFFF" stroke="none"/>
</clipPath>

<text clip-path="url(#Mask_Mask_1)" writing-mode="lr"><tspan x="0" y="55.1" baseline-shift="0%" font-family="Roboto Condensed" font-weight="bold" font-size="58" fill="#FFFFFF" xml:space="preserve">!</tspan></text>
</g>
</g>
</svg>
