
<svg xmlns="http://www.w3.org/2000/svg" version="1.1" xmlns:xlink="http://www.w3.org/1999/xlink" preserveAspectRatio="none" x="0px" y="0px" width="215px" height="215px" viewBox="0 0 215 215">
<defs>
<g id="icons_1_Layer0_0_FILL">
<path fill="#FEFEFE" stroke="none" d="
M -25.5 19.8
Q -25.65 14.55 -31 14.55
L -115 14.55
Q -120.35 14.55 -120.5 19.75
L -120.5 98.15 -25.5 98.15 -25.5 19.8
M -36 44.35
Q -35.3 45.05 -35.3 46.1 -35.3 47.15 -36 47.9 -36.75 48.6 -37.8 48.6
L -107.8 48.6
Q -108.85 48.6 -109.55 47.9 -110.3 47.15 -110.3 46.1 -110.3 45.05 -109.55 44.35 -108.85 43.6 -107.8 43.6
L -37.8 43.6
Q -36.75 43.6 -36 44.35
M -36 30.45
Q -36.75 31.15 -37.8 31.15
L -107.8 31.15
Q -108.85 31.15 -109.55 30.45 -110.3 29.7 -110.3 28.65 -110.3 27.6 -109.55 26.9 -108.85 26.15 -107.8 26.15
L -37.8 26.15
Q -36.75 26.15 -36 26.9 -35.3 27.6 -35.3 28.65 -35.3 29.7 -36 30.45
M -36 65.35
Q -36.75 66.05 -37.8 66.05
L -107.8 66.05
Q -108.85 66.05 -109.55 65.35 -110.3 64.6 -110.3 63.55 -110.3 62.5 -109.55 61.8 -108.85 61.05 -107.8 61.05
L -37.8 61.05
Q -36.75 61.05 -36 61.8 -35.3 62.5 -35.3 63.55 -35.3 64.6 -36 65.35
M -36 82.8
Q -36.75 83.5 -37.8 83.5
L -107.8 83.5
Q -108.85 83.5 -109.55 82.8 -110.3 82.05 -110.3 81 -110.3 79.95 -109.55 79.25 -108.85 78.5 -107.8 78.5
L -37.8 78.5
Q -36.75 78.5 -36 79.25 -35.3 79.95 -35.3 81 -35.3 82.05 -36 82.8
M -53.8 -64.3
L -67.8 -64.3
Q -68.3 -64.3 -68.3 -63.8
L -68.3 -29.8
Q -68.3 -29.3 -67.8 -29.3
L -53.8 -29.3
Q -53.3 -29.3 -53.3 -29.8
L -53.3 -63.8
Q -53.3 -64.3 -53.8 -64.3 Z"/>

<path fill="#576A7D" stroke="none" d="
M -37.8 83.5
Q -36.75 83.5 -36 82.8 -35.3 82.05 -35.3 81 -35.3 79.95 -36 79.25 -36.75 78.5 -37.8 78.5
L -107.8 78.5
Q -108.85 78.5 -109.55 79.25 -110.3 79.95 -110.3 81 -110.3 82.05 -109.55 82.8 -108.85 83.5 -107.8 83.5
L -37.8 83.5
M -37.8 66.05
Q -36.75 66.05 -36 65.35 -35.3 64.6 -35.3 63.55 -35.3 62.5 -36 61.8 -36.75 61.05 -37.8 61.05
L -107.8 61.05
Q -108.85 61.05 -109.55 61.8 -110.3 62.5 -110.3 63.55 -110.3 64.6 -109.55 65.35 -108.85 66.05 -107.8 66.05
L -37.8 66.05
M -37.8 31.15
Q -36.75 31.15 -36 30.45 -35.3 29.7 -35.3 28.65 -35.3 27.6 -36 26.9 -36.75 26.15 -37.8 26.15
L -107.8 26.15
Q -108.85 26.15 -109.55 26.9 -110.3 27.6 -110.3 28.65 -110.3 29.7 -109.55 30.45 -108.85 31.15 -107.8 31.15
L -37.8 31.15
M -35.3 46.1
Q -35.3 45.05 -36 44.35 -36.75 43.6 -37.8 43.6
L -107.8 43.6
Q -108.85 43.6 -109.55 44.35 -110.3 45.05 -110.3 46.1 -110.3 47.15 -109.55 47.9 -108.85 48.6 -107.8 48.6
L -37.8 48.6
Q -36.75 48.6 -36 47.9 -35.3 47.15 -35.3 46.1
M -124.5 -75.3
L -124.5 -20.3
Q -124.4 -15.35 -119 -15.35
L -45 -15.35
Q -44.7 -15.35 -44.45 -15.35 -39.55 -15.55 -39.5 -20.3
L -39.5 -75.3 -124.5 -75.3
M -67.8 -69.3
L -53.8 -69.3
Q -48.3 -69.3 -48.3 -63.8
L -48.3 -29.8
Q -48.3 -24.3 -53.8 -24.3
L -67.8 -24.3
Q -73.3 -24.3 -73.3 -29.8
L -73.3 -63.8
Q -73.3 -69.3 -67.8 -69.3 Z"/>

<path fill="#8CABCA" stroke="none" d="
M 4.45 -42.65
Q 3.8 -44 2.3 -45.3
L -30.3 -73.15
Q -32.5 -75.05 -34.5 -75
L -34.5 -20.3
Q -34.45 -10.75 -44.25 -10.35 -44.3 -10.35 -44.35 -10.35 -44.65 -10.35 -45 -10.35
L -119 -10.35
Q -129.6 -10.35 -129.5 -20.3
L -129.5 -75.3 -143.6 -75.3
Q -150.25 -75.3 -150.25 -68.65
L -150.25 91.5
Q -150.25 98.15 -143.6 98.15
L -125.5 98.15 -125.5 19.7
Q -125.3 9.55 -115 9.55
L -31 9.55
Q -20.65 9.55 -20.5 19.7
L -20.5 98.15 -1.8 98.15
Q 4.45 97.95 4.45 91.5
L 4.45 -42.65 Z"/>
</g>
</defs>

<g transform="matrix( 1, 0, 0, 1, 107.5,107.55) ">
<g transform="matrix( 1, 0, 0, 1, 72.9,-11.45) ">
<use xlink:href="#icons_1_Layer0_0_FILL"/>
</g>
</g>
</svg>
