
<svg xmlns="http://www.w3.org/2000/svg" version="1.1" xmlns:xlink="http://www.w3.org/1999/xlink" preserveAspectRatio="none" x="0px" y="0px" width="215px" height="215px" viewBox="0 0 215 215">
<defs>
<g id="icons_9_Layer0_0_FILL">
<path fill="#8CABCA" stroke="none" d="
M 1.95 -45.85
Q 25.65 -45.85 42.3 -28.45 59.05 -10.95 59.05 13.7 59.05 38.4 42.3 55.8 35.4 63.05 27.35 67.3 42 62.35 53.8 50.5 74.05 30.35 74.05 1.7 74.05 -26.9 53.8 -47.15 33.6 -67.3 5.05 -67.3 -23.6 -67.3 -43.8 -47.15 -46.15 -44.85 -48.15 -42.4 -51.7 -38.2 -58.35 -30.95
L -74.1 -54.6 -74.1 8.4 -9.9 -13.6 -42.6 -23.1 -42.7 -23.5
Q -40.7 -26.05 -38.4 -28.45 -21.7 -45.85 1.95 -45.85 Z"/>
</g>
</defs>

<g transform="matrix( 1.37921142578125, 0, 0, 1.37921142578125, 107.8,108.2) ">
<g transform="matrix( 1, 0, 0, 1, 0,0) ">
<use xlink:href="#icons_9_Layer0_0_FILL"/>
</g>
</g>
</svg>
