
<svg xmlns="http://www.w3.org/2000/svg" version="1.1" xmlns:xlink="http://www.w3.org/1999/xlink" preserveAspectRatio="none" x="0px" y="0px" width="215px" height="215px" viewBox="0 0 215 215">
<defs>
<g id="Layer0_0_MEMBER_0_FILL">
<path fill="#30A9DC" stroke="none" d="
M -942 -53
Q -953 -53 -953 -42
L -953 183.65
Q -953 199.0736328125 -942 198.6
L -788 198.6
Q -777 199.0736328125 -777 183.65
L -777 108.4
Q -776.9982421875 107.15546875 -777.9 106.25 -778.0732421875 106.077734375 -778.3 105.9 -778.0732421875 105.772265625 -777.9 105.55 -776.9982421875 104.69453125 -777 103.45
L -777 17.7
Q -776.9958984375 17.55859375 -777 17.4
L -777 10
Q -776.9982421875 8.75546875 -777.9 7.85
L -837.9 -52.15
Q -838.75546875 -53.0017578125 -840 -53
L -942 -53
M -947 -42
Q -947 -47 -942 -47
L -847.6 -47
Q -843.1509765625 -46.8490234375 -843 -42.4
L -843 2
Q -843 13 -832 13
L -787.5 13
Q -783.1990234375 13.1990234375 -783 17.5 -783 17.550390625 -783 17.6
L -783 103.45
Q -783.0017578125 104.69453125 -782.15 105.55 -781.9267578125 105.772265625 -781.7 105.9 -781.9267578125 106.077734375 -782.15 106.25 -783.0017578125 107.15546875 -783 108.4
L -783 183.65
Q -783 192.169140625 -788 192.6
L -942 192.6
Q -947 192.169140625 -947 183.65
L -947 -42
M -837 -42.6
Q -837.002734375 -42.6783203125 -837 -42.75
L -787.25 7
Q -787.3216796875 7.002734375 -787.4 7 -787.459375 6.9990234375 -787.5 7
L -832 7
Q -837 7 -837 2
L -837 -42.5
Q -836.99921875 -42.5408203125 -837 -42.6 Z"/>

<path fill="#FFFFFF" stroke="none" d="
M -837 -42.75
Q -837.002734375 -42.6783203125 -837 -42.6 -836.99921875 -42.5408203125 -837 -42.5
L -837 2
Q -837 7 -832 7
L -787.5 7
Q -787.459375 6.9990234375 -787.4 7 -787.3216796875 7.002734375 -787.25 7
L -837 -42.75 Z"/>

<path fill="#ECEDEE" stroke="none" d="
M -942 -47
Q -947 -47 -947 -42
L -947 183.65
Q -947 192.169140625 -942 192.6
L -788 192.6
Q -783 192.169140625 -783 183.65
L -783 108.4
Q -783.0017578125 107.15546875 -782.15 106.25 -781.9267578125 106.077734375 -781.7 105.9 -781.9267578125 105.772265625 -782.15 105.55 -783.0017578125 104.69453125 -783 103.45
L -783 17.6
Q -783 17.550390625 -783 17.5 -783.1990234375 13.1990234375 -787.5 13
L -832 13
Q -843 13 -843 2
L -843 -42.4
Q -843.1509765625 -46.8490234375 -847.6 -47
L -942 -47 Z"/>
</g>

<g id="Layer0_0_MEMBER_0_MEMBER_0_MEMBER_0_FILL">
<path fill="#0C73B8" stroke="none" d="
M -580 308
Q -580 300 -588 300
L -732 300
Q -740 300 -740 308
L -740 372
Q -740 380 -732 380
L -588 380
Q -580 380 -580 372
L -580 308 Z"/>
</g>

<path id="Layer0_0_MEMBER_0_MEMBER_0_MEMBER_0_1_STROKES" stroke="#30A9DC" stroke-width="6" stroke-linejoin="miter" stroke-linecap="round" stroke-miterlimit="3" fill="none" d="
M -66.39005126953123 44.723791503906256
L -0.8346313476562273 44.723791503906256
Q 2.8073364257812727 44.723791503906256 2.8073364257812727 48.365759277343756
L 2.8073364257812727 77.50150146484376
Q 2.8073364257812727 81.14346923828126 -0.8346313476562273 81.14346923828126
L -66.39005126953123 81.14346923828126
Q -70.03201904296873 81.14346923828126 -70.03201904296873 77.50150146484376
L -70.03201904296873 48.365759277343756
Q -70.03201904296873 44.723791503906256 -66.39005126953123 44.723791503906256 Z"/>
</defs>

<g transform="matrix( 1, 0, 0, 1, 107.5,107.45) ">
<g transform="matrix( 0.7284088134765625, 0, 0, 0.7284088134765625, 635.95,-53) ">
<use xlink:href="#Layer0_0_MEMBER_0_FILL"/>
</g>

<g transform="matrix( 0.4552459716796875, 0, 0, 0.4552459716796875, 266.85,-91.85) ">
<use xlink:href="#Layer0_0_MEMBER_0_MEMBER_0_MEMBER_0_FILL"/>

<use xlink:href="#Layer0_0_MEMBER_0_MEMBER_0_MEMBER_0_1_STROKES" transform="matrix( 2.1966094970703125, 0, 0, 2.1966094970703125, -586.15,201.75) "/>
</g>

<g transform="matrix( 0.4552459716796875, 0, 0, 0.4552459716796875, -55.35,47.05) ">
<clipPath id="Mask_Mask_1">
<rect x="-2" y="-2" width="99.9" height="73.6" fill="#FFFFFF" stroke="none"/>
</clipPath>

<text clip-path="url(#Mask_Mask_1)" writing-mode="lr"><tspan x="0" y="55.1" baseline-shift="0%" font-family="Roboto Condensed" font-weight="bold" font-size="58" fill="#FFFFFF" xml:space="preserve">CSS</tspan></text>
</g>

<g transform="matrix( 0.9302825927734375, 0, 0, 0.9302825927734375, -24.3,-39.75) ">
<clipPath id="Mask_Mask_2">
<rect x="-2" y="-2" width="65.5" height="73.6" fill="#FFFFFF" stroke="none"/>
</clipPath>

<text clip-path="url(#Mask_Mask_2)" writing-mode="lr"><tspan x="0" y="55.1" baseline-shift="0%" font-family="Roboto Condensed" font-weight="bold" font-size="58" fill="#0C73B8" xml:space="preserve">{  }</tspan></text>
</g>
</g>
</svg>
