
<svg xmlns="http://www.w3.org/2000/svg" version="1.1" xmlns:xlink="http://www.w3.org/1999/xlink" preserveAspectRatio="none" x="0px" y="0px" width="215px" height="215px" viewBox="0 0 215 215">
<defs>
<g id="icons_3_Layer0_0_FILL">
<path fill="#FFFFFF" stroke="none" d="
M 70 -74
Q 70 -90 54 -90
L -54 -90
Q -70 -90 -70 -74
L -70 74
Q -70 90 -54 90
L 28.8 90
Q 22.6173828125 80.9677734375 22.6 69.3 22.6130859375 60.676171875 26.05 53.45
L 13.05 53.45 13.05 48.55 28.85 48.55
Q 30.7798828125 45.68203125 33.35 43.05
L 33.4 43.05
Q 44.276953125 32.3 59.55 32.3 65.076171875 32.299609375 70 33.7
L 70 -74
M 32.5 -37
L 46 -37 32.5 -37
M 18.5 -59
L 46 -59 18.5 -59
M -45.95 -59
L -18.5 -59 -45.95 -59
M -45.95 7
L -37.45 7 -45.95 7
M -45.95 -15
L 46 -15 -45.95 -15
M -13.5 7
L 46 7 -13.5 7
M -45.95 -37
L 9.5 -37 -45.95 -37
M -48.4 31.45
L -48.4 26.55 48.45 26.55 48.45 31.45 -48.4 31.45
M -8.05 53.45
L -48.4 53.45 -48.4 48.55 -8.05 48.55 -8.05 53.45
M 40.2 67.7
L 40.2 71
Q 40.2 73.3 42.45 73.3
L 55.65 73.3 55.65 86.45
Q 55.65 88.7 57.9 88.7
L 61.2 88.7
Q 61.6759765625 88.7 62.05 88.6 62.39609375 88.4591796875 62.7 88.3 63.5 87.7515625 63.5 86.45
L 63.5 73.3 76.65 73.3
Q 78.9 73.3 78.9 71
L 78.9 67.7
Q 78.9 65.45 76.65 65.45
L 63.5 65.45 63.5 52.25
Q 63.5 50.05 61.2 50.05
L 57.9 50.05
Q 55.65 50.05 55.65 52.25
L 55.65 65.45 42.45 65.45
Q 40.2 65.45 40.2 67.7 Z"/>

<path fill="#576A7D" stroke="none" d="
M -48.4 53.45
L -8.05 53.45 -8.05 48.55 -48.4 48.55 -48.4 53.45
M -48.4 26.55
L -48.4 31.45 48.45 31.45 48.45 26.55 -48.4 26.55
M 28.85 48.55
L 13.05 48.55 13.05 53.45 26.05 53.45
Q 26.96640625 51.5255859375 28.1 49.7 28.1349609375 49.6734375 28.15 49.65 28.4912109375 49.0955078125 28.85 48.55
M 82.1 91.95
Q 91.4982421875 82.65546875 91.5 69.3 91.498046875 56.037109375 82.1 46.6 76.42578125 40.9298828125 69.25 38.7
L 69.25 38.7
Q 64.7150390625 37.3001953125 59.55 37.3 46.323046875 37.3 36.9 46.6
L 36.9 46.6
Q 34.234375 49.301171875 32.35 52.3
L 32.35 52.35
Q 27.583203125 59.8505859375 27.6 69.3 27.5806640625 80.2330078125 33.85 88.45
L 33.9 88.5
Q 35.250390625 90.306640625 36.9 91.95 46.3357421875 101.3466796875 59.55 101.35 72.8080078125 101.3455078125 82.1 91.95
M 40.2 71
L 40.2 67.7
Q 40.2 65.45 42.45 65.45
L 55.65 65.45 55.65 52.25
Q 55.65 50.05 57.9 50.05
L 61.2 50.05
Q 63.5 50.05 63.5 52.25
L 63.5 65.45 76.65 65.45
Q 78.9 65.45 78.9 67.7
L 78.9 71
Q 78.9 73.3 76.65 73.3
L 63.5 73.3 63.5 86.45
Q 63.5 87.7515625 62.7 88.3 62.39609375 88.4591796875 62.05 88.6 61.6759765625 88.7 61.2 88.7
L 57.9 88.7
Q 55.65 88.7 55.65 86.45
L 55.65 73.3 42.45 73.3
Q 40.2 73.3 40.2 71 Z"/>
</g>

<path id="icons_3_Layer0_0_1_STROKES" stroke="#576A7D" stroke-width="4.9" stroke-linejoin="round" stroke-linecap="square" fill="none" d="
M 32.5 -37
L 46 -37
M 18.5 -59
L 46 -59
M -45.95 -59
L -18.5 -59
M -45.95 7
L -37.45 7
M -45.95 -15
L 46 -15
M -13.5 7
L 46 7
M -45.95 -37
L 9.5 -37"/>
</defs>

<g transform="matrix( 1, 0, 0, 1, 107.5,107.55) ">
<g transform="matrix( 1, 0, 0, 1, 0,0) ">
<use xlink:href="#icons_3_Layer0_0_FILL"/>

<use xlink:href="#icons_3_Layer0_0_1_STROKES"/>
</g>
</g>
</svg>
