
<svg xmlns="http://www.w3.org/2000/svg" version="1.1" xmlns:xlink="http://www.w3.org/1999/xlink" preserveAspectRatio="none" x="0px" y="0px" width="215px" height="215px" viewBox="0 0 215 215">
<defs>
<g id="Layer0_1_FILL">
<path fill="#FFFFFF" stroke="none" d="
M 59.55 -18.1
Q 34.9 -35.4 0 -35.4 -34.85 -35.4 -59.5 -18.1 -71.2 -9.85 -77.35 0 -71.2 9.8 -59.5 18 -34.85 35.4 0 35.4 34.9 35.4 59.55 18 71.2 9.8 77.35 0 71.2 -9.85 59.55 -18.1
M 29.95 0
Q 29.95 12.45 21.15 21.2 12.4 29.95 -0.05 29.95 -12.45 29.95 -21.25 21.2 -30.05 12.45 -30.05 0 -30.05 -12.4 -21.25 -21.15 -12.45 -29.9 -0.05 -29.9 12.4 -29.9 21.15 -21.15 29.95 -12.4 29.95 0 Z"/>
</g>

<g id="Layer0_1_MEMBER_0_FILL">
<path fill="#8CABCA" stroke="none" d="
M -94.15 -64.2
Q -100 -58.35 -100 -50.05 -100 -41.75 -94.15 -35.9 -88.25 -30.05 -79.95 -30.05 -71.65 -30.05 -65.8 -35.9 -59.9 -41.75 -59.9 -50.05 -59.9 -58.35 -65.8 -64.2 -71.65 -70.05 -79.95 -70.05 -88.25 -70.05 -94.15 -64.2 Z"/>
</g>

<g id="Layer0_1_MEMBER_1_FILL">
<path fill="#FFFFFF" stroke="none" d="
M 4.3 -4.35
Q 2.85 -5.8 0.75 -5.8 -1.35 -5.8 -2.85 -4.35 -4.3 -2.85 -4.3 -0.8 -4.3 1.25 -2.85 2.7 -1.35 4.2 0.75 4.2 2.85 4.2 4.3 2.7 5.8 1.25 5.8 -0.8 5.8 -2.85 4.3 -4.35 Z"/>
</g>

<g id="Layer0_1_MEMBER_2_FILL">
<path fill="#FFFFFF" stroke="none" d="
M 22.1 72
Q 22.5 71.65 22.5 71.15 22.5 70.65 22.1 70.3 21.75 69.95 21.25 69.95 20.75 69.95 20.35 70.3 20 70.65 20 71.15 20 71.65 20.35 72 20.75 72.35 21.25 72.35 21.75 72.35 22.1 72 Z"/>
</g>

<path id="Layer0_0_1_STROKES" stroke="#8CABCA" stroke-width="3" stroke-linejoin="round" stroke-linecap="round" fill="none" d="
M 55.55 -53.45
L 41.75 -35.15
M 0.05 -62.25
L 0.05 -40.1
M 55.5 54.55
L 41.7 36.2
M -52.4 -53.45
L -38.6 -35.15
M -52.45 54.55
L -38.65 36.2
M -0.05 63.35
L -0.05 41.2"/>
</defs>

<g transform="matrix( 1, 0, 0, 1, 104.35,104.2) ">
<g transform="matrix( 1, 0, 0, 1, 0,0) ">
<use xlink:href="#Layer0_0_1_STROKES"/>
</g>

<g transform="matrix( 0.77569580078125, 0, 0, 0.77569580078125, 0,0.15) ">
<use xlink:href="#Layer0_1_FILL"/>
</g>

<g transform="matrix( 0.5803070068359375, 0, 0, 0.5803070068359375, 46.4,29.15) ">
<use xlink:href="#Layer0_1_MEMBER_0_FILL"/>
</g>

<g transform="matrix( 0.77569580078125, 0, 0, 0.77569580078125, -4.65,-2) ">
<use xlink:href="#Layer0_1_MEMBER_1_FILL"/>
</g>

<g transform="matrix( 1.8614501953125, 0, 0, 1.8630523681640625, -37.1,-138.35) ">
<use xlink:href="#Layer0_1_MEMBER_2_FILL"/>
</g>
</g>
</svg>
