
<svg xmlns="http://www.w3.org/2000/svg" version="1.1" xmlns:xlink="http://www.w3.org/1999/xlink" preserveAspectRatio="none" x="0px" y="0px" width="215px" height="215px" viewBox="0 0 215 215">
<defs>
<g id="Layer0_0_MEMBER_0_FILL">
<path fill="#F1672C" stroke="none" d="
M -1197.5 -55.1
Q -1208.5 -55.1 -1208.5 -44.1
L -1208.5 181.55
Q -1208.5 196.95 -1197.5 196.5
L -1043.5 196.5
Q -1032.5 196.95 -1032.5 181.55
L -1032.5 106.3
Q -1032.5 105.05 -1033.35 104.2 -1033.55 104 -1033.8 103.85 -1033.55 103.65 -1033.35 103.5 -1032.5 102.6 -1032.5 101.35
L -1032.5 15.6
Q -1032.5 15.45 -1032.5 15.3
L -1032.5 7.9
Q -1032.5 6.65 -1033.35 5.8
L -1093.35 -54.2
Q -1094.25 -55.1 -1095.5 -55.1
L -1197.5 -55.1
M -1202.5 -44.1
Q -1202.5 -49.1 -1197.5 -49.1
L -1103.1 -49.1
Q -1098.65 -48.95 -1098.5 -44.5
L -1098.5 -0.1
Q -1098.5 10.9 -1087.5 10.9
L -1043 10.9
Q -1038.7 11.1 -1038.5 15.4 -1038.5 15.45 -1038.5 15.5
L -1038.5 101.35
Q -1038.5 102.6 -1037.6 103.5 -1037.45 103.65 -1037.2 103.85 -1037.45 104 -1037.6 104.2 -1038.5 105.05 -1038.5 106.3
L -1038.5 181.55
Q -1038.5 190.05 -1043.5 190.5
L -1197.5 190.5
Q -1202.5 190.05 -1202.5 181.55
L -1202.5 -44.1
M -1092.5 -44.7
Q -1092.5 -44.8 -1092.5 -44.85
L -1042.75 4.9
Q -1042.8 4.9 -1042.9 4.9 -1042.95 4.9 -1043 4.9
L -1087.5 4.9
Q -1092.5 4.9 -1092.5 -0.1
L -1092.5 -44.6
Q -1092.5 -44.65 -1092.5 -44.7 Z"/>

<path fill="#FFFFFF" stroke="none" d="
M -1092.5 -44.85
Q -1092.5 -44.8 -1092.5 -44.7 -1092.5 -44.65 -1092.5 -44.6
L -1092.5 -0.1
Q -1092.5 4.9 -1087.5 4.9
L -1043 4.9
Q -1042.95 4.9 -1042.9 4.9 -1042.8 4.9 -1042.75 4.9
L -1092.5 -44.85 Z"/>

<path fill="#ECEDEE" stroke="none" d="
M -1197.5 -49.1
Q -1202.5 -49.1 -1202.5 -44.1
L -1202.5 181.55
Q -1202.5 190.05 -1197.5 190.5
L -1043.5 190.5
Q -1038.5 190.05 -1038.5 181.55
L -1038.5 106.3
Q -1038.5 105.05 -1037.6 104.2 -1037.45 104 -1037.2 103.85 -1037.45 103.65 -1037.6 103.5 -1038.5 102.6 -1038.5 101.35
L -1038.5 15.5
Q -1038.5 15.45 -1038.5 15.4 -1038.7 11.1 -1043 10.9
L -1087.5 10.9
Q -1098.5 10.9 -1098.5 -0.1
L -1098.5 -44.5
Q -1098.65 -48.95 -1103.1 -49.1
L -1197.5 -49.1 Z"/>
</g>

<g id="Layer0_0_MEMBER_0_MEMBER_0_FILL">
<path fill="#E55126" stroke="none" d="
M -580 308
Q -580 300 -588 300
L -732 300
Q -740 300 -740 308
L -740 372
Q -740 380 -732 380
L -588 380
Q -580 380 -580 372
L -580 308 Z"/>
</g>

<path id="Layer0_0_MEMBER_0_MEMBER_0_1_STROKES" stroke="#F1672C" stroke-width="6" stroke-linejoin="miter" stroke-linecap="round" stroke-miterlimit="3" fill="none" d="
M -66.39005126953123 44.723791503906256
L -0.8346313476562273 44.723791503906256
Q 2.8073364257812727 44.723791503906256 2.8073364257812727 48.365759277343756
L 2.8073364257812727 77.50150146484376
Q 2.8073364257812727 81.14346923828126 -0.8346313476562273 81.14346923828126
L -66.39005126953123 81.14346923828126
Q -70.03201904296873 81.14346923828126 -70.03201904296873 77.50150146484376
L -70.03201904296873 48.365759277343756
Q -70.03201904296873 44.723791503906256 -66.39005126953123 44.723791503906256 Z"/>
</defs>

<g transform="matrix( 1, 0, 0, 1, 107.5,107.45) ">
<g transform="matrix( 0.7284088134765625, 0, 0, 0.7284088134765625, 822.05,-51.45) ">
<use xlink:href="#Layer0_0_MEMBER_0_FILL"/>
</g>

<g transform="matrix( 0.4552459716796875, 0, 0, 0.4552459716796875, 266.85,-91.85) ">
<use xlink:href="#Layer0_0_MEMBER_0_MEMBER_0_FILL"/>

<use xlink:href="#Layer0_0_MEMBER_0_MEMBER_0_1_STROKES" transform="matrix( 2.1966094970703125, 0, 0, 2.1966094970703125, -586.15,201.75) "/>
</g>

<g transform="matrix( 0.4552459716796875, 0, 0, 0.4552459716796875, -64.85,47.05) ">
<clipPath id="Mask_Mask_1">
<rect x="-2" y="-2" width="143" height="73.6" fill="#FFFFFF" stroke="none"/>
</clipPath>

<text clip-path="url(#Mask_Mask_1)" writing-mode="lr"><tspan x="0" y="55.1" baseline-shift="0%" font-family="Roboto Condensed" font-weight="bold" font-size="58" fill="#FFFFFF" xml:space="preserve">HTML</tspan></text>
</g>

<g transform="matrix( 0.9689483642578125, 0, 0, 0.9689483642578125, -32.15,-35.4) ">
<clipPath id="Mask_Mask_2">
<rect x="-2" y="-2" width="75.65" height="73.6" fill="#FFFFFF" stroke="none"/>
</clipPath>

<text clip-path="url(#Mask_Mask_2)" writing-mode="lr"><tspan x="0" y="55.1" baseline-shift="0%" font-family="Roboto Condensed" font-weight="bold" font-size="58" fill="#E55126" xml:space="preserve">&lt;/&gt;</tspan></text>
</g>
</g>
</svg>
