
<svg xmlns="http://www.w3.org/2000/svg" version="1.1" xmlns:xlink="http://www.w3.org/1999/xlink" preserveAspectRatio="none" x="0px" y="0px" width="215px" height="215px" viewBox="0 0 215 215">
<defs>
<g id="icons_2_Layer0_0_FILL">
<path fill="#8CABCA" stroke="none" d="
M 513.5 -47.4
L 376.55 -47.4 395.1 91.3 494.95 91.3 513.5 -47.4
M 402.65 -30.1
Q 403.5 -29.4 403.6 -28.35
L 412.55 75.2
Q 412.7 76.2 411.85 77 411.1 77.75 409.9 77.85 408.65 77.95 407.75 77.25 406.85 76.55 406.7 75.55
L 397.75 -28
Q 397.65 -29.05 398.45 -29.8 399.25 -30.6 400.45 -30.7 401.7 -30.8 402.65 -30.1
M 432.25 -30
Q 433.05 -29.3 433.1 -28.25
L 436.15 75.3
Q 436.15 76.3 435.35 77.1 434.5 77.85 433.3 77.85 432.05 77.85 431.25 77.15 430.35 76.45 430.3 75.45
L 427.25 -28.1
Q 427.25 -29.15 428.05 -29.9 428.9 -30.7 430.1 -30.7 431.35 -30.7 432.25 -30
M 459.8 -30.7
Q 461 -30.7 461.85 -29.9 462.65 -29.2 462.65 -28.15
L 459.65 75.4
Q 459.6 76.45 458.8 77.15 457.9 77.85 456.7 77.85 455.45 77.85 454.65 77.1 453.8 76.35 453.8 75.3
L 456.8 -28.25
Q 456.85 -29.3 457.75 -30 458.55 -30.7 459.8 -30.7
M 491.5 -29.8
Q 492.3 -29.05 492.2 -28
L 483.25 75.55
Q 483.1 76.55 482.25 77.25 481.3 77.95 480.15 77.85 478.9 77.75 478.1 77 477.25 76.2 477.4 75.2
L 486.35 -28.35
Q 486.45 -29.4 487.4 -30.1 488.25 -30.8 489.5 -30.7 490.65 -30.6 491.5 -29.8
M 373.5 -76.65
L 373.5 -76.7 517.95 -64.9 517.95 -64.85
Q 518.5 -64.85 518.65 -65.3
L 518.55 -65.25 520.1 -79.2 520.15 -79.25
Q 520.15 -79.75 519.55 -79.8
L 375.15 -91.6
Q 374.55 -91.65 374.5 -91.15
L 372.95 -77.2
Q 372.9 -76.9 372.9 -76.75 373.15 -76.7 373.5 -76.65 Z"/>

<path fill="#576A7D" stroke="none" d="
M 492.2 -28
Q 492.3 -29.05 491.5 -29.8 490.65 -30.6 489.5 -30.7 488.25 -30.8 487.4 -30.1 486.45 -29.4 486.35 -28.35
L 477.4 75.2
Q 477.25 76.2 478.1 77 478.9 77.75 480.15 77.85 481.3 77.95 482.25 77.25 483.1 76.55 483.25 75.55
L 492.2 -28
M 461.85 -29.9
Q 461 -30.7 459.8 -30.7 458.55 -30.7 457.75 -30 456.85 -29.3 456.8 -28.25
L 453.8 75.3
Q 453.8 76.35 454.65 77.1 455.45 77.85 456.7 77.85 457.9 77.85 458.8 77.15 459.6 76.45 459.65 75.4
L 462.65 -28.15
Q 462.65 -29.2 461.85 -29.9
M 433.1 -28.25
Q 433.05 -29.3 432.25 -30 431.35 -30.7 430.1 -30.7 428.9 -30.7 428.05 -29.9 427.25 -29.15 427.25 -28.1
L 430.3 75.45
Q 430.35 76.45 431.25 77.15 432.05 77.85 433.3 77.85 434.5 77.85 435.35 77.1 436.15 76.3 436.15 75.3
L 433.1 -28.25
M 403.6 -28.35
Q 403.5 -29.4 402.65 -30.1 401.7 -30.8 400.45 -30.7 399.25 -30.6 398.45 -29.8 397.65 -29.05 397.75 -28
L 406.7 75.55
Q 406.85 76.55 407.75 77.25 408.65 77.95 409.9 77.85 411.1 77.75 411.85 77 412.7 76.2 412.55 75.2
L 403.6 -28.35
M 474.7 -93.4
Q 474.7 -93.9 474.15 -93.95
L 422.95 -98.15
Q 422.35 -98.2 422.3 -97.7
L 421.85 -93.8 421.85 -93.75
Q 421.8 -93.25 422.4 -93.15
L 422.4 -93.2 473.65 -89 473.65 -88.95
Q 474 -88.95 474.15 -88.95 474.25 -89.15 474.3 -89.45
L 474.7 -93.4 Z"/>
</g>
</defs>

<g transform="matrix( 1, 0, 0, 1, 107.5,107.55) ">
<g transform="matrix( 1, 0, 0, 1, -446.5,3.4) ">
<use xlink:href="#icons_2_Layer0_0_FILL"/>
</g>
</g>
</svg>
