
<svg xmlns="http://www.w3.org/2000/svg" version="1.1" xmlns:xlink="http://www.w3.org/1999/xlink" preserveAspectRatio="none" x="0px" y="0px" width="49px" height="81px" viewBox="0 0 49 81">
<defs>
<g id="S_mbolo_3_0_Layer0_0_MEMBER_0_MEMBER_0_FILL">
<path fill="#8CABCA" stroke="none" d="
M -6.75 38.35
Q -6.75 37.5 -7.4 37.5 -7.75 37.5 -7.95 37.75
L -7.95 37.55 -8.6 37.55 -8.6 40 -7.95 40 -7.95 38.2
Q -7.85 38 -7.7 38 -7.55 38 -7.45 38.15 -7.4 38.2 -7.4 38.4
L -7.4 40 -6.75 40 -6.75 38.35
M -16 38.25
Q -16 37.9 -16.25 37.7 -16.5 37.5 -16.9 37.5 -17.25 37.5 -17.5 37.7 -17.75 37.9 -17.75 38.25 -17.75 38.5 -17.6 38.65 -17.45 38.8 -17.05 38.95 -16.8 39.1 -16.65 39.2 -16.6 39.25 -16.6 39.35 -16.6 39.55 -16.9 39.55 -17.05 39.55 -17.1 39.45 -17.2 39.4 -17.2 39.25
L -17.85 39.25
Q -17.85 39.45 -17.7 39.6 -17.6 39.8 -17.35 39.95 -17.15 40.05 -16.9 40.05 -16.5 40.05 -16.25 39.8 -16 39.6 -16 39.3 -16 39.05 -16.15 38.8 -16.3 38.65 -16.75 38.5 -17 38.4 -17.05 38.35 -17.15 38.3 -17.15 38.2 -17.15 38.05 -17.05 38 -17 37.95 -16.9 37.95 -16.6 37.95 -16.6 38.25
L -16 38.25
M -14.4 37.55
L -14.4 40 -13.75 40 -13.75 37.55 -14.4 37.55
M -10.85 37.75
Q -11 37.5 -11.3 37.5 -11.75 37.5 -11.95 37.75 -12.15 38.05 -12.15 38.65
L -12.15 38.85
Q -12.15 39.4 -11.95 39.7 -11.75 40.05 -11.3 40.05 -11.05 40.05 -10.85 39.75
L -10.85 40
Q -10.85 40.25 -10.95 40.35 -11.05 40.45 -11.25 40.45 -11.35 40.45 -11.5 40.35 -11.7 40.3 -11.8 40.2
L -12 40.65
Q -11.9 40.75 -11.7 40.9 -11.4 40.95 -11.2 40.95 -10.75 40.95 -10.45 40.7 -10.2 40.45 -10.2 40
L -10.2 37.55 -10.8 37.55 -10.85 37.75
M -11.15 38
Q -10.95 38 -10.85 38.2
L -10.85 39.35
Q -10.95 39.5 -11.15 39.5 -11.35 39.5 -11.4 39.35 -11.5 39.2 -11.5 38.8
L -11.5 38.65
Q -11.5 38.35 -11.4 38.2 -11.3 38 -11.15 38
M -13.7 36.9
Q -13.7 36.75 -13.8 36.65 -13.9 36.55 -14.05 36.55 -14.25 36.55 -14.35 36.65 -14.45 36.75 -14.45 36.9 -14.45 37 -14.35 37.1 -14.25 37.25 -14.05 37.25 -13.9 37.25 -13.8 37.1 -13.7 37 -13.7 36.9
M -1.9 36.65
Q -2.25 36.65 -2.45 36.85 -2.7 37.1 -2.7 37.5 -2.7 37.7 -2.6 37.85 -2.55 38 -2.4 38.25 -2.7 38.5 -2.8 38.65 -2.9 38.85 -2.9 39.1 -2.9 39.5 -2.65 39.75 -2.4 40.05 -1.95 40.05 -1.6 40.05 -1.35 39.8
L -1.15 40 -0.5 40 -0.9 39.4
Q -0.65 38.95 -0.65 38.35
L -1.15 38.35
Q -1.15 38.6 -1.3 38.85
L -1.7 38.3 -1.5 38.15
Q -1.1 37.8 -1.1 37.4 -1.1 37.05 -1.35 36.85 -1.55 36.65 -1.9 36.65
M -1.75 37.25
Q -1.65 37.35 -1.65 37.45 -1.65 37.55 -1.7 37.65 -1.75 37.7 -1.85 37.8
L -1.95 37.85
Q -2.15 37.65 -2.15 37.5 -2.15 37.35 -2.05 37.25 -1.95 37.15 -1.9 37.15 -1.8 37.15 -1.75 37.25
M -2.2 38.65
L -2.15 38.65 -1.6 39.4
Q -1.75 39.5 -1.95 39.5 -2.05 39.5 -2.2 39.35 -2.3 39.25 -2.3 39.05 -2.3 38.8 -2.2 38.65
M -20.4 39.35
Q -20.5 39.25 -20.55 38.95
L -19.2 38.95 -19.2 38.65
Q -19.2 38.05 -19.5 37.75 -19.7 37.5 -20.2 37.5 -20.65 37.5 -20.9 37.8 -21.2 38.15 -21.2 38.7
L -21.2 38.85
Q -21.2 39.45 -20.85 39.7 -20.6 40.05 -20.1 40.05 -19.85 40.05 -19.65 39.95 -19.4 39.8 -19.3 39.65
L -19.55 39.3
Q -19.75 39.5 -20.05 39.5 -20.3 39.5 -20.4 39.35
M -20.5 38.5
Q -20.5 38.25 -20.45 38.15 -20.35 38 -20.2 38 -20 38 -19.95 38.15 -19.85 38.25 -19.85 38.45
L -19.85 38.5 -20.5 38.5
M -24 36.65
L -24.9 36.65 -24.9 40 -24.05 40
Q -23.4 40 -23.1 39.6 -22.75 39.25 -22.75 38.6
L -22.75 38.05
Q -22.75 37.4 -23.1 37 -23.4 36.65 -24 36.65
M -23.4 38.05
L -23.4 38.65
Q -23.4 39.1 -23.6 39.25 -23.7 39.45 -24.05 39.45
L -24.2 39.45 -24.2 37.25 -24 37.25
Q -23.7 37.25 -23.5 37.45 -23.4 37.6 -23.4 38.05
M 24.95 38.65
Q 24.95 38.05 24.75 37.75 24.5 37.5 24.15 37.5 23.85 37.5 23.6 37.75
L 23.6 37.55 23 37.55 23 40.95 23.65 40.95 23.65 39.75
Q 23.85 40.05 24.15 40.05 24.5 40.05 24.75 39.7 24.95 39.4 24.95 38.8
L 24.95 38.65
M 24.2 38.2
Q 24.3 38.3 24.3 38.65
L 24.3 38.8
Q 24.3 39.2 24.2 39.35 24.15 39.5 23.95 39.5 23.75 39.5 23.65 39.35
L 23.65 38.2
Q 23.75 38 23.95 38 24.15 38 24.2 38.2
M 10.3 37.55
L 11 40 11.55 40 12.25 37.55 11.6 37.55 11.3 39.1 11 37.55 10.3 37.55
M 15.55 39.65
L 15.3 39.3
Q 15.05 39.5 14.75 39.5 14.55 39.5 14.45 39.35 14.35 39.25 14.3 38.95
L 15.6 38.95 15.6 38.65
Q 15.6 38.05 15.35 37.75 15.15 37.5 14.65 37.5 14.15 37.5 13.9 37.8 13.65 38.15 13.65 38.7
L 13.65 38.85
Q 13.65 39.45 13.95 39.7 14.2 40.05 14.7 40.05 14.95 40.05 15.2 39.95 15.45 39.8 15.55 39.65
M 14.85 38.15
Q 14.95 38.25 14.95 38.45
L 14.95 38.5 14.35 38.5
Q 14.35 38.25 14.4 38.15 14.5 38 14.65 38 14.8 38 14.85 38.15
M 19.45 38.65
L 19.45 38.8
Q 19.45 39.4 19.7 39.7 19.95 40.05 20.45 40.05 20.9 40.05 21.2 39.7 21.45 39.4 21.45 38.8
L 21.45 38.65
Q 21.45 38.15 21.2 37.8 20.9 37.5 20.45 37.5 19.95 37.5 19.7 37.8 19.45 38.15 19.45 38.65
M 20.05 38.8
L 20.05 38.65
Q 20.05 38.35 20.15 38.2 20.3 38 20.45 38 20.6 38 20.7 38.2 20.8 38.35 20.8 38.65
L 20.75 38.9
Q 20.75 39.5 20.45 39.5 20.05 39.5 20.05 38.8
M 8.7 37.75
Q 8.5 37.5 8 37.5 7.55 37.5 7.25 37.8 7 38.15 7 38.7
L 7 38.85
Q 7 39.45 7.3 39.7 7.6 40.05 8.05 40.05 8.35 40.05 8.55 39.95 8.8 39.8 8.9 39.65
L 8.65 39.3
Q 8.45 39.5 8.1 39.5 7.9 39.5 7.8 39.35 7.7 39.25 7.65 38.95
L 8.95 38.95 8.95 38.65
Q 8.95 38.05 8.7 37.75
M 7.7 38.5
Q 7.7 38.25 7.75 38.15 7.85 38 8 38 8.15 38 8.2 38.15 8.35 38.25 8.35 38.45
L 8.35 38.5 7.7 38.5
M 4.2 36.65
L 3.3 36.65 3.3 40 4.15 40
Q 4.75 40 5.1 39.6 5.45 39.25 5.45 38.6
L 5.45 38.05
Q 5.45 37.4 5.1 37 4.75 36.65 4.2 36.65
M 4.75 38.05
L 4.75 38.65
Q 4.75 39.1 4.6 39.25 4.5 39.45 4.15 39.45
L 4 39.45 4 37.25 4.2 37.25
Q 4.5 37.25 4.65 37.45 4.75 37.6 4.75 38.05
M 17.85 36.5
L 17.2 36.5 17.2 40 17.85 40 17.85 36.5 Z"/>
</g>

<g id="S_mbolo_3_0_Layer0_0_MEMBER_0_MEMBER_1_FILL">
<path fill="#FFFFFF" stroke="none" d="
M -21.5 23.3
Q -22.85 23.3 -23.75 24.1 -24.65 24.85 -24.65 26.1 -24.65 27.15 -24 27.9 -23.35 28.65 -21.85 29.2 -21 29.55 -20.7 29.85 -20.4 30.2 -20.4 30.8 -20.4 31.9 -21.45 31.9 -22.2 31.9 -22.55 31.5 -22.9 31.1 -22.9 30.25
L -24.9 30.25
Q -24.9 31.25 -24.45 32 -24 32.75 -23.2 33.15 -22.4 33.55 -21.45 33.55 -20.05 33.55 -19.2 32.8 -18.35 32.05 -18.35 30.8 -18.35 29.6 -19.05 28.85 -19.7 28.05 -21.15 27.55 -22 27.2 -22.3 26.85 -22.65 26.5 -22.65 26.1 -22.65 25.6 -22.35 25.25 -22.05 24.95 -21.5 24.95 -20.95 24.95 -20.65 25.35 -20.35 25.7 -20.35 26.4
L -18.35 26.4
Q -18.35 25.5 -18.75 24.8 -19.15 24.1 -19.85 23.7 -20.55 23.3 -21.5 23.3
M -10.6 23.45
L -17.5 23.45 -17.5 25.1 -15.1 25.1 -15.1 33.4 -13.05 33.4 -13.05 25.1 -10.6 25.1 -10.6 23.45
M -7.5 23.45
L -9.55 23.45 -9.55 30.3
Q -9.55 31.85 -8.7 32.7 -7.85 33.55 -6.25 33.55 -4.65 33.55 -3.85 32.7 -3 31.9 -3 30.35
L -3 23.45 -5 23.45 -5 30.35
Q -5 31.15 -5.25 31.5 -5.55 31.85 -6.25 31.85 -6.95 31.85 -7.25 31.5 -7.5 31.15 -7.5 30.3
L -7.5 23.45
M 8.55 23.45
L 6.55 23.45 6.55 33.4 8.55 33.4 8.55 23.45
M 16.3 24.45
Q 15.35 23.3 13.65 23.3 12 23.3 11.05 24.45 10.1 25.6 10.1 27.65
L 10.1 29.35
Q 10.1 31.35 11.05 32.45 12 33.55 13.7 33.55 15.35 33.55 16.3 32.45 17.25 31.3 17.25 29.3
L 17.25 27.6
Q 17.25 25.55 16.3 24.45
M 15.25 27.65
L 15.25 29.4
Q 15.25 30.65 14.85 31.25 14.45 31.85 13.7 31.85 12.85 31.85 12.5 31.25 12.1 30.6 12.1 29.3
L 12.1 27.55
Q 12.1 26.25 12.5 25.65 12.85 25 13.65 25 14.45 25 14.85 25.65 15.25 26.3 15.25 27.65
M 3.95 24.55
Q 2.9 23.45 1.2 23.45
L -1.45 23.45 -1.45 33.4 1.15 33.4
Q 2.95 33.4 4 32.3 5 31.15 5 29.2
L 5 27.6
Q 5 25.65 3.95 24.55
M 1.3 25.1
Q 2.25 25.15 2.6 25.7 3 26.25 3 27.65
L 3 29.35
Q 3 30.65 2.6 31.2 2.15 31.75 1.15 31.75
L 0.55 31.75 0.55 25.1 1.3 25.1
M 23.45 23.7
Q 22.75 23.3 21.8 23.3 20.45 23.3 19.55 24.1 18.65 24.85 18.65 26.1 18.65 27.15 19.3 27.9 19.95 28.65 21.45 29.2 22.3 29.55 22.6 29.85 22.9 30.2 22.9 30.8 22.9 31.9 21.85 31.9 21.1 31.9 20.75 31.5 20.4 31.1 20.4 30.25
L 18.4 30.25
Q 18.4 31.25 18.85 32 19.3 32.75 20.1 33.15 20.9 33.55 21.85 33.55 23.25 33.55 24.1 32.8 24.95 32.05 24.95 30.8 24.95 29.6 24.25 28.85 23.6 28.05 22.15 27.55 21.3 27.2 21 26.85 20.65 26.5 20.65 26.1 20.65 25.6 20.95 25.25 21.25 24.95 21.8 24.95 22.35 24.95 22.65 25.35 22.95 25.7 22.95 26.4
L 24.95 26.4
Q 24.95 25.5 24.55 24.8 24.15 24.1 23.45 23.7 Z"/>
</g>

<g id="S_mbolo_3_0_Layer0_0_MEMBER_1_MEMBER_0_FILL">
<path fill="#8CABCA" stroke="none" d="
M 5 -28.65
Q 7.1 -30.7 7.1 -33.7 7.1 -36.85 5 -38.9 2.95 -40.9 -0.05 -40.9 -3.05 -40.9 -5.15 -38.9 -7.2 -36.85 -7.2 -33.7 -7.2 -30.7 -5.15 -28.65 -3.05 -26.55 -0.05 -26.55 2.95 -26.55 5 -28.65 Z"/>
</g>

<g id="S_mbolo_3_0_Layer0_0_MEMBER_1_MEMBER_0_MEMBER_0_FILL">
<path fill="#8CABCA" stroke="none" d="
M 9.6 -21.8
L 4.95 -21.8
Q 4.75 -21.8 4.55 -21.6
L 0.05 -14.1 -4.45 -21.6
Q -4.65 -21.8 -4.9 -21.8
L -9.55 -21.8 -9.55 -2.85 -4.55 -2.85 -4.55 -12.6 -0.5 -5.9
Q -0.45 -5.75 -0.25 -5.7 -0.1 -5.65 0.05 -5.65 0.2 -5.65 0.35 -5.7 0.55 -5.75 0.6 -5.9
L 4.65 -12.6 4.65 -2.85 9.6 -2.85 9.6 -21.8 Z"/>
</g>
</defs>

<g transform="matrix( 1, 0, 0, 1, 24.9,40.9) ">
<g transform="matrix( 1, 0, 0, 1, 0,0) ">
<use xlink:href="#S_mbolo_3_0_Layer0_0_MEMBER_0_MEMBER_0_FILL"/>
</g>

<g transform="matrix( 1, 0, 0, 1, 0,0) ">
<use xlink:href="#S_mbolo_3_0_Layer0_0_MEMBER_0_MEMBER_1_FILL"/>
</g>

<g transform="matrix( 1, 0, 0, 1, 0,0) ">
<use xlink:href="#S_mbolo_3_0_Layer0_0_MEMBER_1_MEMBER_0_FILL"/>
</g>

<g transform="matrix( 2.6031341552734375, 0, 0, 2.6048583984375, -0.05,25.45) ">
<use xlink:href="#S_mbolo_3_0_Layer0_0_MEMBER_1_MEMBER_0_MEMBER_0_FILL"/>
</g>
</g>
</svg>
